<svg width="44" height="44" viewBox="0 0 44 44" fill="none" xmlns="http://www.w3.org/2000/svg">
<path d="M16.984 2.46403C7.08401 4.84003 0.440011 15.048 2.11201 25.212C4.84001 41.36 24.64 47.784 36.124 36.3C50.6 21.78 36.916 -2.37597 16.984 2.46403ZM26.62 4.18003C40.348 7.74403 45.012 24.992 35.024 35.024C24.42 45.584 6.38001 39.732 3.82801 24.904C1.62801 11.924 13.772 0.880032 26.62 4.18003Z" fill="white"/>
<path d="M14.3001 18.04L10.3401 22L14.3881 26.048C17.6001 29.26 18.5681 30.008 19.0081 29.568C19.4481 29.128 18.9201 28.38 16.5001 25.96L13.4641 22.88L23.3201 22.792C31.7681 22.66 33.2201 22.572 33.2201 22C33.2201 21.428 31.7681 21.34 23.3201 21.208L13.4641 21.12L16.4561 18.084C19.0521 15.444 19.8001 14.08 18.5681 14.08C18.3921 14.08 16.4561 15.884 14.3001 18.04Z" fill="white"/>
</svg>
