<svg width="44" height="44" viewBox="0 0 44 44" fill="none" xmlns="http://www.w3.org/2000/svg">
<path d="M18.744 4.00395C11.44 5.19195 5.14802 11.7039 3.91602 19.3159C2.37602 28.9519 9.41602 38.4559 19.272 40.0399C28.996 41.6239 38.456 34.6279 40.084 24.6839C41.624 15.0919 34.628 5.54395 24.86 3.95995C21.912 3.47595 21.78 3.47595 18.744 4.00395ZM28.6 7.96395C31.68 9.41595 34.584 12.32 36.036 15.4C37.004 17.4679 37.18 18.4359 37.18 21.9999C37.18 25.5639 37.004 26.5319 36.036 28.5999C34.584 31.6799 31.68 34.5839 28.6 36.0359C26.532 37.0039 25.564 37.1799 22 37.1799C18.436 37.1799 17.468 37.0039 15.4 36.0359C10.12 33.5279 6.95202 28.6879 6.68802 22.6599C6.38002 15.7519 9.81202 10.2959 16.192 7.61195C19.668 6.15995 25.08 6.29195 28.6 7.96395Z" fill="white"/>
<path d="M19.5361 12.5839C18.8321 12.9359 17.8641 13.8159 17.4681 14.4759C16.5441 16.1039 16.4561 18.8319 17.3801 19.1839C18.3041 19.5359 19.3601 18.5679 19.3601 17.4239C19.3601 15.8399 20.4161 14.8279 22.0001 14.8279C23.7161 14.8279 24.6401 15.8399 24.6401 17.7319C24.6401 18.6999 24.0681 19.6679 22.6161 21.2079C20.9881 22.9679 20.6361 23.5839 20.7681 24.7719C20.8561 25.9599 21.0761 26.1799 22.0001 26.1799C22.7481 26.1799 23.1441 25.9159 23.2321 25.2999C23.3201 24.8159 24.0681 23.7159 24.8601 22.8799C26.7961 20.8119 27.2801 19.7559 27.2801 17.5999C27.2801 15.3119 26.1801 13.4199 24.3761 12.5399C22.6161 11.7039 21.2521 11.7039 19.5361 12.5839Z" fill="white"/>
<path d="M20.68 30.14C20.02 30.932 20.24 32.12 21.252 32.736C22.748 33.704 24.464 31.548 23.32 30.14C22.616 29.304 21.384 29.304 20.68 30.14Z" fill="white"/>
</svg>
