<svg width="270" height="66" viewBox="0 0 270 66" fill="none" xmlns="http://www.w3.org/2000/svg">
<path fill-rule="evenodd" clip-rule="evenodd" d="M181 4C181 7.61 180.754 8 178.475 8C175.368 8 173.578 11.936 174.486 16.775C174.982 19.419 175.687 20.187 178.052 20.66L181 21.25V30.977C181 39.425 181.298 41.151 183.27 44.102C186.53 48.983 191.347 51.196 197.689 50.728C204.028 50.261 206 48.768 206 44.437C206 40.508 204.988 39.726 199 39.026L194.5 38.5L194.211 29.75C193.903 20.413 194.018 20.225 199.638 20.9C200.263 20.975 201.951 20.589 203.388 20.043C205.648 19.183 206 18.467 206 14.725C206 9.198 204.718 8 198.8 8H194V4V0H187.5H181V4ZM44.4651 7.898C43.3461 8.381 41.8201 9.511 41.0751 10.41C39.8321 11.907 39.6011 11.875 38.3031 10.022C36.5471 7.515 29.9071 7.236 27.5711 9.571C25.4171 11.726 25.2141 47.102 27.3451 48.872C29.5551 50.706 34.3301 51.14 37.0001 49.75C39.4231 48.489 39.5161 48.053 40.0171 35.631C40.4661 24.49 40.7851 22.63 42.4581 21.407C44.8811 19.635 46.1201 19.637 48.5591 21.416C50.2541 22.653 50.5631 24.455 51.0001 35.656L51.5001 48.48L54.2781 49.808C57.9921 51.584 63.5871 49.854 64.3161 46.704C64.5971 45.492 64.8881 39.866 64.9631 34.202C65.1231 22.15 65.3871 21.192 68.7791 20.341C73.5931 19.132 75.0001 22.544 75.0001 35.42C75.0001 48.553 75.8031 50.4 81.5121 50.4C88.2601 50.4 89.2921 47.867 88.8051 32.505C88.3401 17.848 87.3491 14.894 81.3721 10.335C76.4291 6.564 67.7551 6.333 63.0011 9.844L59.8281 12.187L57.4761 9.978C54.8971 7.555 47.8651 6.431 44.4651 7.898ZM104.5 8.449C90.3441 13.648 86.3991 33.662 97.3681 44.632C105.777 53.04 120.165 53.057 127.889 44.669C130.152 42.212 130.193 41.944 128.666 39.613C126.315 36.024 123.534 35.507 119.617 37.928C114.775 40.921 109.555 40.657 106.205 37.25L103.5 34.5L116.73 34.221C132.072 33.898 132.672 33.522 131.496 24.974C129.68 11.767 116.85 3.913 104.5 8.449ZM146.5 8.896C128.557 17.203 130.288 44.633 149.095 50.027C156.667 52.199 165.889 50.111 170.911 45.089C173.595 42.405 173.541 41.632 170.455 38.545C167.394 35.485 166.4 35.417 162.5 38C158.572 40.602 152.994 40.57 149.635 37.927C148.186 36.788 147 35.438 147 34.927C147 34.409 152.261 34 158.918 34C174.097 34 174.005 34.038 173.978 27.643C173.913 12.496 159.688 2.79 146.5 8.896ZM219.791 7.988C211.894 10.369 206.977 17.644 208.909 24.09C210.347 28.89 213.802 31.62 220.908 33.571C230.069 36.087 231.399 36.814 229.979 38.525C228.196 40.674 222.359 40.33 217.878 37.811L213.983 35.622L211.242 37.669C209.357 39.076 208.5 40.62 208.5 42.608C208.5 45.105 209.242 45.876 213.929 48.25C226.858 54.798 242.271 49.573 243.658 38.172C244.514 31.141 239.759 26.749 227.694 23.425C223.288 22.211 221.963 21.424 222.202 20.163C222.73 17.371 228.076 17.562 232.448 20.529C236.311 23.151 236.32 23.152 238.908 21.227C242.607 18.476 242.638 15.792 239.011 12.165C234.44 7.594 226.688 5.91 219.791 7.988ZM106.205 20.75L103.5 23.5L107.224 23.809C109.272 23.979 112.872 23.979 115.224 23.809L119.5 23.5L116.795 20.75C115.225 19.154 113.004 18 111.5 18C109.996 18 107.775 19.154 106.205 20.75ZM149.205 20.75L146.5 23.5L150.224 23.809C152.272 23.979 155.807 23.979 158.08 23.809L162.212 23.5L159.654 20.75C158.132 19.115 156.044 18 154.502 18C152.996 18 150.776 19.152 149.205 20.75Z" fill="white"/>
</svg>
