<svg width="40" height="40" viewBox="0 0 40 40" fill="none" xmlns="http://www.w3.org/2000/svg">
<mask id="mask0_4418_3170" style="mask-type:alpha" maskUnits="userSpaceOnUse" x="-2" y="-2" width="44" height="44">
<path d="M14.18 14C14.6502 12.6633 15.5783 11.5362 16.7999 10.8183C18.0215 10.1003 19.4578 9.83788 20.8544 10.0774C22.2509 10.317 23.5176 11.043 24.4302 12.1271C25.3427 13.2111 25.8421 14.583 25.84 16C25.84 20 19.84 22 19.84 22M20 30H20.02M40 20C40 31.0457 31.0457 40 20 40C8.9543 40 0 31.0457 0 20C0 8.9543 8.9543 0 20 0C31.0457 0 40 8.9543 40 20Z" stroke="#1E1E1E" stroke-width="4" stroke-linecap="round" stroke-linejoin="round"/>
</mask>
<g mask="url(#mask0_4418_3170)">
<rect x="-2" y="-2" width="44" height="44" fill="#D9D9D9"/>
</g>
</svg>
